/* XPM */
static char *c4f25aa9d2764f4fae30de10e4abd7d1wLNvwWtZr6e0RE2p[] = {
/* columns rows colors chars-per-pixel */
"48 48 133 2 ",
"   c None",
".  c #638D16",
"X  c #669316",
"o  c #6A9B16",
"O  c #6FA217",
"+  c #74AB17",
"@  c #72A31D",
"#  c #75AD19",
"$  c #7DBD17",
"%  c #77B118",
"&  c #7AB41B",
"*  c #7DBC19",
"=  c #75A522",
"-  c #79AB25",
";  c #7CAB2C",
":  c #7EB523",
">  c #7FC017",
",  c #81BF1E",
"<  c #80B727",
"1  c #81BC23",
"2  c #82B62D",
"3  c #84BC2B",
"4  c #85B633",
"5  c #87BB32",
"6  c #88BC33",
"7  c #86B33A",
"8  c #89BA39",
"9  c #82C31B",
"0  c #85C422",
"q  c #89C726",
"w  c #8AC62B",
"e  c #8CC92C",
"r  c #8DC434",
"t  c #8FCA31",
"y  c #8FC339",
"u  c #91CB35",
"i  c #90C13F",
"p  c #94CC3B",
"a  c #8FBE41",
"s  c #91BE46",
"d  c #92BD49",
"f  c #92C443",
"g  c #96CD41",
"h  c #99CF45",
"j  c #94C149",
"k  c #98C74D",
"l  c #9BCD4B",
"z  c #9AD044",
"x  c #9DD14B",
"c  c #98C350",
"v  c #9ECC55",
"b  c #9EC65B",
"n  c #9FD150",
"m  c #A0D34E",
"M  c #A2CD5D",
"N  c #A2D353",
"B  c #A6D55D",
"V  c #A8D65F",
"C  c #A5CC63",
"Z  c #A6C76F",
"A  c #AACF6C",
"S  c #A6D061",
"D  c #AAD764",
"F  c #ACD866",
"G  c #ADD66B",
"H  c #AED96A",
"J  c #B0DA6E",
"K  c #A8C772",
"L  c #AFD373",
"P  c #B4DC74",
"I  c #B0D278",
"U  c #B7DD7A",
"Y  c #B8DE7B",
"T  c #B8DF7C",
"R  c #B9DF7D",
"E  c #B8DF7C",
"W  c #BADF80",
"Q  c #BADF81",
"!  c #BEDE8B",
"~  c #BEDE8A",
"^  c #BEDE8B",
"/  c #BBE081",
"(  c #BCE183",
")  c #BDE185",
"_  c #BEE087",
"`  c #BDE184",
"'  c #C0DF8C",
"]  c #C0E289",
"[  c #C0E289",
"{  c #C5E494",
"}  c #C7E597",
"|  c #C7E697",
" . c #C9E69B",
".. c #CAE69C",
"X. c #CAE59F",
"o. c #CAE69E",
"O. c #C8E59A",
"+. c #CBE7A0",
"@. c #CCE5A3",
"#. c #CDE8A2",
"$. c #D0E9A8",
"%. c #D3ECAD",
"&. c #D4ECAF",
"*. c #D4ECAF",
"=. c #D7ECB5",
"-. c #DCEEBF",
";. c #DCEFBF",
":. c #D9EABD",
">. c #DEEFC2",
",. c #DCEBC2",
"<. c #DFF0C3",
"1. c #E0F1C7",
"2. c #E1F1C8",
"3. c #E3F2CB",
"4. c #E6F3D1",
"5. c #E6F3D1",
"6. c #E9F5D7",
"7. c #EDF6DE",
"8. c #EDF7DE",
"9. c #EEF7DF",
"0. c #EAF5D9",
"q. c #F1F8E4",
"w. c #F1F9E5",
"e. c #F0F8E3",
"r. c #F5FAED",
"t. c #F6FBEF",
"y. c #F6FBEE",
"u. c #F7FBF1",
"i. c #F8FCF2",
"p. c #F9FCF3",
"a. c #FEFEFD",
"s. c #FEFFFD",
"d. c #FCFEFA",
/* pixels */
"                                                                                                ",
"                                                                                                ",
"                                                                                                ",
"                                                                                                ",
"                                          - ;                                                   ",
"                                        i P ' L 7                                               ",
"                                    = y N H / %.~ 7                                             ",
"                                  = r z N H J ( &.~ 7                                           ",
"                                @ w p N U Y T T ] &.~ 7                                         ",
"                              @ 3 u N U U U U T T ] &.~ 7                                       ",
"                            @ 3 u N P U U U U U T T ] &.~ 7                                     ",
"                          @ 1 e x J P P P U U U U T T ] &.~ 7                                   ",
"                  ; d d = 1 e x H J P P P P U U U U T T ] &.~ 7                                 ",
"                4 P X.b 1 q h H H H J H D H P U U U U T T ] &.~ 7                               ",
"                l J s 1 0 h F H H H H z u p D U U U U U T T ] &.~ 7                             ",
"              2 z f & 9 p D F F H H V t e t N P U U U U Y T T ] &.~ 7                           ",
"              r x f * 9 x F F F F H F p e u B P P U P J J P U T ] &.~ 7                         ",
"            - u N j * 9 x F D F F F H V x B H P J B x z z z N H U ] &.~ 7                       ",
"            3 p F M & 9 t B D D F F F H H H H H x u u u p z p z B U ] &.~ 7                     ",
"            w z J P 8 * 9 p B D D F F F H H H h e t u z X.3.#.) H B Y ] &.~ 7                   ",
"          : t N P P G 8 * 9 p B D D F F F H N e e e t X.s.9.t.p.P z H T ] &.~ 7                 ",
"          3 u F J J P B : * 9 p B D D F F F p e e e u 1.9.| 4.t.O.p N Y T ] &.~ 7               ",
"      ; - w h H H J D p e : * 9 p B D D F D t q g x e | p.1.U w.<.p x U T T ] &.~ 7             ",
"    b I 3 e N H H H V t e w : * 9 p B D F B e q +.6.z W s.$.z ;.| p z P Y T Y ] &.~ 7           ",
"  a | C 1 u D H H H H z t p B 8 * 9 p B D B e q =.9.) ;.>.w.x p p u z P U U Y Y ] &.~ 7         ",
"  l D < 0 h F F F H H F V D H F 4 * 9 p B D p 9 P u.0.W 4.t.N e u u N U U U U Y T ] &.~ 7       ",
"= g y & 0 N F F F F F H H H H H l & * 9 p B n 0 F e.t.t.d.O.t e t p D U U U U U T T ] &.~ 7     ",
"= p 6 * 9 x F D F F F F F F H H h q & $ 9 p B p h n J #.U t e e t N P P U U U U U T T ] &.~ 7   ",
"= p r & 9 e B D D D D F F F F H x q w s * 9 p B p 0 9 0 0 q e t x H P P P P U U U U T T / %.A   ",
"= r h 4 $ 9 w g N D D D D F F F N q e @.K * 9 p B N p t t u h B H H H N x D P U U U U T H ) R   ",
"= r x C 4 * $ 9 0 u x B D D D F D p 0 N ,.Z * 9 p B D D D D H H H H N e e p J U U U U Y F J S   ",
"@ w z P G v 5 & $ 9 9 w p N D D F N e 9 P :.4 $ 9 p B D F F F F H H x e e u H P U U U P N N 6   ",
"@ w z J J P B w : & & $ 9 0 t x B D N t p h 0 & $ 9 p B D D F F F H B p u N J P P U J m p 6     ",
"@ w h H H H D p e u k 8 : * 9 9 w p N B x p t r 2 * 9 p B D D F F F H D F H J P P H x p 5       ",
"@ q p H H H H F B D H H M 8 & & * 9 0 t l B D D B 4 * 9 p B D D F F F H H H H J H z u 3         ",
"@ q p F H H H H H H H H H B w 1 & < * > 9 q p N D B 4 * 9 p B D D F F F H H H F h t 3           ",
"@ 0 p F F F F F F F F F F F x q q f c d & * 9 9 t l v 4 * 9 p B D D F F F H D p e 3             ",
"@ 9 u F F F F F F F F F F F D h w 9 t ~ 6 & & * > 9 q r : * 9 p B D D F F D p w <               ",
"@ , e B F D D D D D D D D D D D N p t t t p l j 2 & $ 9 9 % * 9 p B F F B p q :                 ",
"  * 9 u N B B B B B B B B B B B B B B B B B B B B k 6 : * * % * 9 t h h t 0 :                   ",
"  # 9 9 0 w w w w w w w w w w w w w w w w w w w w e w 0 & % % + * 9 9 9 9 &                     ",
"    # * * * * * * * * * * * * * * * * * * * * * * * * * * * & + O & * * #                       ",
"        o o o o o o o o o o o o o o o o o o o o o o o o o o o o X . X                           ",
"                                                                                                ",
"                                                                                                ",
"                                                                                                ",
"                                                                                                ",
"                                                                                                "
};
